# xmcd CD database file
#
# Track frame offsets:
#	150
#	26321
#	51133
#	76560
#	101594
#	122634
#	136279
#	162153
#	177029
#	210588
#	250624
#
# Disc length: 3929 seconds
#
# Revision: 0
# Processed by: cddbd v1.4PL0 Copyright (c) Steve Scherf et al.
# Submitted via: CDex 1.50
#
DISCID=7b0f570b
DTITLE=Beth Quist - Silver
DYEAR=2003
DGENRE=New Age
TTITLE0=Liquid Silver
TTITLE1=Om Asatoma Sad Gamaya
TTITLE2=Monsters
TTITLE3=Grace
TTITLE4=Blue Planet
TTITLE5=Warrior
TTITLE6=Padip
TTITLE7=Phoenix
TTITLE8=Stars
TTITLE9=Q song
TTITLE10=Planet
EXTD=YEAR: 2003
EXTT0=
EXTT1=
EXTT2=
EXTT3=
EXTT4=
EXTT5=
EXTT6=
EXTT7=
EXTT8=
EXTT9=
EXTT10=
PLAYORDER=
